<svg width="32" height="32" viewBox="0 0 32 32" fill="none" xmlns="http://www.w3.org/2000/svg">
<circle cx="16" cy="16" r="16" fill="#F37E20"/>
<g clip-path="url(#clip0_406_8)">
<path d="M14.5709 8.22977C13.3168 8.22977 12.0908 8.60167 11.0479 9.29845C10.0051 9.99523 9.19238 10.9856 8.71243 12.1443C8.23248 13.303 8.10691 14.578 8.35158 15.8081C8.59626 17.0381 9.2002 18.168 10.087 19.0548C10.9739 19.9417 12.1038 20.5456 13.3338 20.7903C14.5639 21.035 15.8389 20.9094 16.9976 20.4294C18.1563 19.9495 19.1466 19.1367 19.8434 18.0939C20.5402 17.0511 20.9121 15.8251 20.9121 14.571C20.9094 12.89 20.2405 11.2786 19.0519 10.09C17.8632 8.90139 16.2519 8.23244 14.5709 8.22977ZM14.5709 19.7459C13.5482 19.7454 12.5486 19.4416 11.6984 18.8731C10.8483 18.3045 10.1858 17.4967 9.79466 16.5517C9.40353 15.6068 9.30134 14.567 9.501 13.564C9.70066 12.5609 10.1932 11.6396 10.9164 10.9164C11.6396 10.1932 12.5609 9.70068 13.564 9.50102C14.567 9.30137 15.6067 9.40356 16.5517 9.79469C17.4967 10.1858 18.3045 10.8483 18.8731 11.6985C19.4416 12.5486 19.7453 13.5482 19.7459 14.571C19.7449 15.9431 19.1994 17.2588 18.2291 18.2291C17.2588 19.1994 15.9431 19.7449 14.5709 19.7459Z" fill="white" stroke="white" stroke-width="0.5"/>
<path d="M23.5662 22.5792L19.5676 18.5806C19.4357 18.4556 19.2601 18.387 19.0784 18.3894C18.8967 18.3919 18.7231 18.4652 18.5946 18.5937C18.466 18.7222 18.3928 18.8958 18.3903 19.0775C18.3879 19.2593 18.4565 19.4348 18.5815 19.5667L22.5801 23.5653C22.712 23.6903 22.8875 23.7589 23.0693 23.7565C23.251 23.754 23.4246 23.6807 23.5531 23.5522C23.6816 23.4237 23.7549 23.2501 23.7573 23.0684C23.7598 22.8867 23.6912 22.7111 23.5662 22.5792Z" fill="white" stroke="white" stroke-width="0.5"/>
</g>
<defs>
<clipPath id="clip0_406_8">
<rect width="16" height="16" fill="white" transform="translate(8 8)"/>
</clipPath>
</defs>
</svg>
